<svg xmlns="http://www.w3.org/2000/svg" xmlns:xlink="http://www.w3.org/1999/xlink" width="500" zoomAndPan="magnify" viewBox="0 0 375 374.999991" height="500" preserveAspectRatio="xMidYMid meet" version="1.2"><defs><clipPath id="1e53faad00"><path d="M 130.195312 130.730469 L 267.59375 130.730469 L 267.59375 156.929688 L 130.195312 156.929688 Z M 130.195312 130.730469 "/></clipPath><clipPath id="363af00bc6"><path d="M 72.664062 87.058594 L 187.726562 87.058594 L 187.726562 113.257812 L 72.664062 113.257812 Z M 72.664062 87.058594 "/></clipPath><clipPath id="7d0ae8e149"><path d="M 130.195312 261.742188 L 245.257812 261.742188 L 245.257812 287.941406 L 130.195312 287.941406 Z M 130.195312 261.742188 "/></clipPath><clipPath id="d3d56fd6ad"><path d="M 130.195312 218.070312 L 267.59375 218.070312 L 267.59375 244.269531 L 130.195312 244.269531 Z M 130.195312 218.070312 "/></clipPath><clipPath id="72832446f3"><path d="M 130.195312 174.398438 L 302.335938 174.398438 L 302.335938 200.601562 L 130.195312 200.601562 Z M 130.195312 174.398438 "/></clipPath></defs><g id="c6221b5ae9"><g clip-rule="nonzero" clip-path="url(#1e53faad00)"><path style=" stroke:none;fill-rule:nonzero;fill:#ff2e00;fill-opacity:1;" d="M 130.195312 130.730469 L 267.644531 130.730469 L 267.644531 156.929688 L 130.195312 156.929688 Z M 130.195312 130.730469 "/></g><g clip-rule="nonzero" clip-path="url(#363af00bc6)"><path style=" stroke:none;fill-rule:nonzero;fill:#ff2e00;fill-opacity:1;" d="M 72.664062 87.058594 L 187.699219 87.058594 L 187.699219 113.257812 L 72.664062 113.257812 Z M 72.664062 87.058594 "/></g><g clip-rule="nonzero" clip-path="url(#7d0ae8e149)"><path style=" stroke:none;fill-rule:nonzero;fill:#ff2e00;fill-opacity:1;" d="M 130.195312 261.742188 L 245.230469 261.742188 L 245.230469 287.941406 L 130.195312 287.941406 Z M 130.195312 261.742188 "/></g><g clip-rule="nonzero" clip-path="url(#d3d56fd6ad)"><path style=" stroke:none;fill-rule:nonzero;fill:#ff2e00;fill-opacity:1;" d="M 130.195312 218.070312 L 267.644531 218.070312 L 267.644531 244.269531 L 130.195312 244.269531 Z M 130.195312 218.070312 "/></g><g clip-rule="nonzero" clip-path="url(#72832446f3)"><path style=" stroke:none;fill-rule:nonzero;fill:#ff2e00;fill-opacity:1;" d="M 130.195312 174.398438 L 302.335938 174.398438 L 302.335938 200.601562 L 130.195312 200.601562 Z M 130.195312 174.398438 "/></g></g></svg>